#!OML:ASF F:\VICON\USERDATA\INSTALL\rory3\rory3.ASF
:FULLY-SPECIFIED
:DEGREES
189
root -10.7116 17.8956 9.46303 -10.6603 53.7344 -10.6316
lowerback 11.7704 -0.617363 2.30479
upperback 1.52931 -0.364841 2.07428
thorax -5.00084 -0.185817 0.926733
lowerneck -16.1113 -4.57398 -12.5466
upperneck 36.078 -4.2678 6.07208
head 16.0002 -2.47071 4.1262
rclavicle -8.73907e-014 -1.43125e-014
rhumerus -35.88 -11.4086 -81.533
rradius 30.4655
rwrist 6.37867
rhand -14.4221 7.72242
rfingers 7.12502
rthumb 11.7221 -21.9296
lclavicle -8.73907e-014 -1.43125e-014
lhumerus -26.5084 -9.89051 89.7305
lradius 53.6011
lwrist 0.578257
lhand -20.4893 23.2353
lfingers 7.12502
lthumb 5.8674 53.1341
rfemur 0.268658 0.525195 23.4104
rtibia 29.2128
rfoot -13.3907 3.30284
rtoes -11.843
lfemur -22.8833 2.52402 -18.5913
ltibia 52.7992
lfoot 13.6031 -22.7299
ltoes 0.182021
190
root -10.6842 17.8915 9.52739 -11.2423 54.4837 -11.34
lowerback 11.9701 -0.428442 2.72169
upperback 1.43331 -0.0426503 2.15397
thorax -5.21296 -0.0355785 0.726573
lowerneck -16.1953 -4.57376 -12.6187
upperneck 36.0958 -4.26837 6.21909
head 16.0363 -2.45393 4.2072
rclavicle -2.77056e-015 3.57812e-015
rhumerus -36.181 -10.9844 -81.5399
rradius 30.6877
rwrist 6.22576
rhand -14.3514 7.62727
rfingers 7.12502
rthumb 11.7903 -22.0209
lclavicle -2.77056e-015 3.57812e-015
lhumerus -26.5609 -9.95784 89.905
lradius 54.0195
lwrist 0.659883
lhand -20.584 23.2201
lfingers 7.12502
lthumb 5.776 53.1213
rfemur 1.05804 -0.129656 23.973
rtibia 28.1918
rfoot -13.541 2.45906
rtoes -13.5696
lfemur -23.8365 3.14191 -18.1417
ltibia 53.5281
lfoot 12.0339 -22.8521
ltoes -1.38926
191
root -10.6564 17.8838 9.59201 -11.8609 55.1379 -12.0763
lowerback 12.0852 -0.183205 3.11908
upperback 1.397 0.347952 2.22492
thorax -5.3107 0.148973 0.514169
lowerneck -16.2602 -4.59293 -12.438
upperneck 36.0766 -4.32195 6.19148
head 16.041 -2.44733 4.15388
rclavicle 8.95773e-015 -1.63003e-014
rhumerus -36.3944 -10.6508 -81.5532
rradius 30.9108
rwrist 5.96468
rhand -14.2422 7.42748
rfingers 7.12502
rthumb 11.8956 -22.2146
lclavicle 8.95773e-015 -1.63003e-014
lhumerus -26.507 -10.1272 90.0591
lradius 54.3675
lwrist 0.718998
lhand -20.6707 23.7811
lfingers 7.12502
lthumb 5.69231 53.6846
rfemur 1.78822 -0.584399 24.5758
rtibia 27.343
rfoot -13.5719 1.66965
rtoes -13.0528
lfemur -24.7249 3.47642 -17.7483
ltibia 53.9814
lfoot 10.5868 -22.612
ltoes 0.468313
192
root -10.6218 17.8757 9.65368 -12.178 55.6604 -12.3784
lowerback 12.1837 0.113918 3.2383
upperback 1.41475 0.76794 2.28829
thorax -5.34049 0.354317 0.444174
lowerneck -16.3769 -4.67024 -12.4606
upperneck 36.1241 -4.3896 6.17201
head 16.1044 -2.47503 4.14015
rclavicle 2.90723e-015 1.99779e-014
rhumerus -36.4783 -10.2447 -81.4509
rradius 31.0779
rwrist 5.62152
rhand -14.0986 7.4464
rfingers 7.12502
rthumb 12.034 -22.1876
lclavicle 2.90723e-015 1.99779e-014
lhumerus -26.4919 -10.1281 90.2387
lradius 54.7218
lwrist 0.717357
lhand -20.9048 24.0947
lfingers 7.12502
lthumb 5.46624 54.0042
rfemur 2.51149 -0.864366 24.9192
rtibia 26.6592
rfoot -13.5701 0.950311
rtoes -10.4754
lfemur -25.4221 3.73205 -17.6843
ltibia 54.1068
lfoot 8.81621 -22.0867
ltoes 1.12712
193
root -10.578 17.8743 9.71244 -12.0481 56.015 -12.2641
lowerback 12.2049 0.413245 3.28173
upperback 1.36666 1.16798 2.21287
thorax -5.3943 0.547768 0.274327
lowerneck -16.4093 -4.70871 -12.4544
upperneck 36.1649 -4.41904 6.14861
head 16.1369 -2.4844 4.12645
rclavicle 9.02358e-014 -3.89618e-014
rhumerus -36.5081 -10.022 -81.3592
rradius 30.9613
rwrist 5.61589
rhand -14.0386 7.85102
rfingers 7.12502
rthumb 12.0919 -21.7796
lclavicle 9.02358e-014 -3.89618e-014
lhumerus -26.5607 -10.0174 90.2228
lradius 55.0173
lwrist 0.768903
lhand -21.2941 23.8947
lfingers 7.12502
lthumb 5.09038 53.8135
rfemur 3.07508 -0.872046 25.0366
rtibia 26.1003
rfoot -13.7381 0.162502
rtoes -10.0217
lfemur -26.104 4.6525 -17.8774
ltibia 53.9048
lfoot 6.52472 -21.6143
ltoes -1.2764
